<svg xmlns="http://www.w3.org/2000/svg" width="436" height="556" viewBox="0 0 436 556">
  <style>
    text { font-family: -apple-system, "Segoe UI", Helvetica, Arial, sans-serif; font-size: 12px; fill: #F3E9FF; }
    .h1 { font-size: 16px; font-weight: 600; }
    .muted { fill: #A78BC7; }
    .num { font-size: 22px; font-weight: 700; fill: #F0A6FF; }
    .label { font-size: 11px; fill: #A78BC7; text-transform: uppercase; letter-spacing: .5px; }
  </style>
  <rect width="436" height="556" rx="8" fill="#140A2E" stroke="#3B2A63"/>
  <text x="24" y="30" class="h1">0 contributions in the current game</text>
  <text x="24" y="50" class="muted">Last move: new game — waiting for the first player</text>
  <rect x="24" y="64" width="18" height="18" rx="3" fill="#241247" stroke="rgba(240,246,252,0.07)"/>
  <rect x="46" y="64" width="18" height="18" rx="3" fill="#241247" stroke="rgba(240,246,252,0.07)"/>
  <rect x="68" y="64" width="18" height="18" rx="3" fill="#241247" stroke="rgba(240,246,252,0.07)"/>
  <rect x="90" y="64" width="18" height="18" rx="3" fill="#241247" stroke="rgba(240,246,252,0.07)"/>
  <rect x="112" y="64" width="18" height="18" rx="3" fill="#241247" stroke="rgba(240,246,252,0.07)"/>
  <rect x="134" y="64" width="18" height="18" rx="3" fill="#241247" stroke="rgba(240,246,252,0.07)"/>
  <rect x="156" y="64" width="18" height="18" rx="3" fill="#241247" stroke="rgba(240,246,252,0.07)"/>
  <rect x="178" y="64" width="18" height="18" rx="3" fill="#241247" stroke="rgba(240,246,252,0.07)"/>
  <rect x="200" y="64" width="18" height="18" rx="3" fill="#241247" stroke="rgba(240,246,252,0.07)"/>
  <rect x="222" y="64" width="18" height="18" rx="3" fill="#241247" stroke="rgba(240,246,252,0.07)"/>
  <rect x="24" y="86" width="18" height="18" rx="3" fill="#241247" stroke="rgba(240,246,252,0.07)"/>
  <rect x="46" y="86" width="18" height="18" rx="3" fill="#241247" stroke="rgba(240,246,252,0.07)"/>
  <rect x="68" y="86" width="18" height="18" rx="3" fill="#241247" stroke="rgba(240,246,252,0.07)"/>
  <rect x="90" y="86" width="18" height="18" rx="3" fill="#241247" stroke="rgba(240,246,252,0.07)"/>
  <rect x="112" y="86" width="18" height="18" rx="3" fill="#241247" stroke="rgba(240,246,252,0.07)"/>
  <rect x="134" y="86" width="18" height="18" rx="3" fill="#241247" stroke="rgba(240,246,252,0.07)"/>
  <rect x="156" y="86" width="18" height="18" rx="3" fill="#241247" stroke="rgba(240,246,252,0.07)"/>
  <rect x="178" y="86" width="18" height="18" rx="3" fill="#241247" stroke="rgba(240,246,252,0.07)"/>
  <rect x="200" y="86" width="18" height="18" rx="3" fill="#241247" stroke="rgba(240,246,252,0.07)"/>
  <rect x="222" y="86" width="18" height="18" rx="3" fill="#241247" stroke="rgba(240,246,252,0.07)"/>
  <rect x="24" y="108" width="18" height="18" rx="3" fill="#241247" stroke="rgba(240,246,252,0.07)"/>
  <rect x="46" y="108" width="18" height="18" rx="3" fill="#241247" stroke="rgba(240,246,252,0.07)"/>
  <rect x="68" y="108" width="18" height="18" rx="3" fill="#241247" stroke="rgba(240,246,252,0.07)"/>
  <rect x="90" y="108" width="18" height="18" rx="3" fill="#241247" stroke="rgba(240,246,252,0.07)"/>
  <rect x="112" y="108" width="18" height="18" rx="3" fill="#241247" stroke="rgba(240,246,252,0.07)"/>
  <rect x="134" y="108" width="18" height="18" rx="3" fill="#241247" stroke="rgba(240,246,252,0.07)"/>
  <rect x="156" y="108" width="18" height="18" rx="3" fill="#241247" stroke="rgba(240,246,252,0.07)"/>
  <rect x="178" y="108" width="18" height="18" rx="3" fill="#241247" stroke="rgba(240,246,252,0.07)"/>
  <rect x="200" y="108" width="18" height="18" rx="3" fill="#241247" stroke="rgba(240,246,252,0.07)"/>
  <rect x="222" y="108" width="18" height="18" rx="3" fill="#241247" stroke="rgba(240,246,252,0.07)"/>
  <rect x="24" y="130" width="18" height="18" rx="3" fill="#241247" stroke="rgba(240,246,252,0.07)"/>
  <rect x="46" y="130" width="18" height="18" rx="3" fill="#241247" stroke="rgba(240,246,252,0.07)"/>
  <rect x="68" y="130" width="18" height="18" rx="3" fill="#241247" stroke="rgba(240,246,252,0.07)"/>
  <rect x="90" y="130" width="18" height="18" rx="3" fill="#241247" stroke="rgba(240,246,252,0.07)"/>
  <rect x="112" y="130" width="18" height="18" rx="3" fill="#241247" stroke="rgba(240,246,252,0.07)"/>
  <rect x="134" y="130" width="18" height="18" rx="3" fill="#241247" stroke="rgba(240,246,252,0.07)"/>
  <rect x="156" y="130" width="18" height="18" rx="3" fill="#241247" stroke="rgba(240,246,252,0.07)"/>
  <rect x="178" y="130" width="18" height="18" rx="3" fill="#241247" stroke="rgba(240,246,252,0.07)"/>
  <rect x="200" y="130" width="18" height="18" rx="3" fill="#241247" stroke="rgba(240,246,252,0.07)"/>
  <rect x="222" y="130" width="18" height="18" rx="3" fill="#241247" stroke="rgba(240,246,252,0.07)"/>
  <rect x="24" y="152" width="18" height="18" rx="3" fill="#241247" stroke="rgba(240,246,252,0.07)"/>
  <rect x="46" y="152" width="18" height="18" rx="3" fill="#241247" stroke="rgba(240,246,252,0.07)"/>
  <rect x="68" y="152" width="18" height="18" rx="3" fill="#241247" stroke="rgba(240,246,252,0.07)"/>
  <rect x="90" y="152" width="18" height="18" rx="3" fill="#241247" stroke="rgba(240,246,252,0.07)"/>
  <rect x="112" y="152" width="18" height="18" rx="3" fill="#241247" stroke="rgba(240,246,252,0.07)"/>
  <rect x="134" y="152" width="18" height="18" rx="3" fill="#241247" stroke="rgba(240,246,252,0.07)"/>
  <rect x="156" y="152" width="18" height="18" rx="3" fill="#241247" stroke="rgba(240,246,252,0.07)"/>
  <rect x="178" y="152" width="18" height="18" rx="3" fill="#241247" stroke="rgba(240,246,252,0.07)"/>
  <rect x="200" y="152" width="18" height="18" rx="3" fill="#241247" stroke="rgba(240,246,252,0.07)"/>
  <rect x="222" y="152" width="18" height="18" rx="3" fill="#241247" stroke="rgba(240,246,252,0.07)"/>
  <rect x="24" y="174" width="18" height="18" rx="3" fill="#241247" stroke="rgba(240,246,252,0.07)"/>
  <rect x="46" y="174" width="18" height="18" rx="3" fill="#241247" stroke="rgba(240,246,252,0.07)"/>
  <rect x="68" y="174" width="18" height="18" rx="3" fill="#241247" stroke="rgba(240,246,252,0.07)"/>
  <rect x="90" y="174" width="18" height="18" rx="3" fill="#241247" stroke="rgba(240,246,252,0.07)"/>
  <rect x="112" y="174" width="18" height="18" rx="3" fill="#241247" stroke="rgba(240,246,252,0.07)"/>
  <rect x="134" y="174" width="18" height="18" rx="3" fill="#241247" stroke="rgba(240,246,252,0.07)"/>
  <rect x="156" y="174" width="18" height="18" rx="3" fill="#241247" stroke="rgba(240,246,252,0.07)"/>
  <rect x="178" y="174" width="18" height="18" rx="3" fill="#241247" stroke="rgba(240,246,252,0.07)"/>
  <rect x="200" y="174" width="18" height="18" rx="3" fill="#241247" stroke="rgba(240,246,252,0.07)"/>
  <rect x="222" y="174" width="18" height="18" rx="3" fill="#241247" stroke="rgba(240,246,252,0.07)"/>
  <rect x="24" y="196" width="18" height="18" rx="3" fill="#241247" stroke="rgba(240,246,252,0.07)"/>
  <rect x="46" y="196" width="18" height="18" rx="3" fill="#241247" stroke="rgba(240,246,252,0.07)"/>
  <rect x="68" y="196" width="18" height="18" rx="3" fill="#241247" stroke="rgba(240,246,252,0.07)"/>
  <rect x="90" y="196" width="18" height="18" rx="3" fill="#241247" stroke="rgba(240,246,252,0.07)"/>
  <rect x="112" y="196" width="18" height="18" rx="3" fill="#241247" stroke="rgba(240,246,252,0.07)"/>
  <rect x="134" y="196" width="18" height="18" rx="3" fill="#241247" stroke="rgba(240,246,252,0.07)"/>
  <rect x="156" y="196" width="18" height="18" rx="3" fill="#241247" stroke="rgba(240,246,252,0.07)"/>
  <rect x="178" y="196" width="18" height="18" rx="3" fill="#241247" stroke="rgba(240,246,252,0.07)"/>
  <rect x="200" y="196" width="18" height="18" rx="3" fill="#241247" stroke="rgba(240,246,252,0.07)"/>
  <rect x="222" y="196" width="18" height="18" rx="3" fill="#241247" stroke="rgba(240,246,252,0.07)"/>
  <rect x="24" y="218" width="18" height="18" rx="3" fill="#241247" stroke="rgba(240,246,252,0.07)"/>
  <rect x="46" y="218" width="18" height="18" rx="3" fill="#241247" stroke="rgba(240,246,252,0.07)"/>
  <rect x="68" y="218" width="18" height="18" rx="3" fill="#241247" stroke="rgba(240,246,252,0.07)"/>
  <rect x="90" y="218" width="18" height="18" rx="3" fill="#241247" stroke="rgba(240,246,252,0.07)"/>
  <rect x="112" y="218" width="18" height="18" rx="3" fill="#241247" stroke="rgba(240,246,252,0.07)"/>
  <rect x="134" y="218" width="18" height="18" rx="3" fill="#241247" stroke="rgba(240,246,252,0.07)"/>
  <rect x="156" y="218" width="18" height="18" rx="3" fill="#241247" stroke="rgba(240,246,252,0.07)"/>
  <rect x="178" y="218" width="18" height="18" rx="3" fill="#241247" stroke="rgba(240,246,252,0.07)"/>
  <rect x="200" y="218" width="18" height="18" rx="3" fill="#241247" stroke="rgba(240,246,252,0.07)"/>
  <rect x="222" y="218" width="18" height="18" rx="3" fill="#241247" stroke="rgba(240,246,252,0.07)"/>
  <rect x="24" y="240" width="18" height="18" rx="3" fill="#241247" stroke="rgba(240,246,252,0.07)"/>
  <rect x="46" y="240" width="18" height="18" rx="3" fill="#241247" stroke="rgba(240,246,252,0.07)"/>
  <rect x="68" y="240" width="18" height="18" rx="3" fill="#241247" stroke="rgba(240,246,252,0.07)"/>
  <rect x="90" y="240" width="18" height="18" rx="3" fill="#241247" stroke="rgba(240,246,252,0.07)"/>
  <rect x="112" y="240" width="18" height="18" rx="3" fill="#241247" stroke="rgba(240,246,252,0.07)"/>
  <rect x="134" y="240" width="18" height="18" rx="3" fill="#241247" stroke="rgba(240,246,252,0.07)"/>
  <rect x="156" y="240" width="18" height="18" rx="3" fill="#241247" stroke="rgba(240,246,252,0.07)"/>
  <rect x="178" y="240" width="18" height="18" rx="3" fill="#241247" stroke="rgba(240,246,252,0.07)"/>
  <rect x="200" y="240" width="18" height="18" rx="3" fill="#241247" stroke="rgba(240,246,252,0.07)"/>
  <rect x="222" y="240" width="18" height="18" rx="3" fill="#241247" stroke="rgba(240,246,252,0.07)"/>
  <rect x="24" y="262" width="18" height="18" rx="3" fill="#241247" stroke="rgba(240,246,252,0.07)"/>
  <rect x="46" y="262" width="18" height="18" rx="3" fill="#241247" stroke="rgba(240,246,252,0.07)"/>
  <rect x="68" y="262" width="18" height="18" rx="3" fill="#241247" stroke="rgba(240,246,252,0.07)"/>
  <rect x="90" y="262" width="18" height="18" rx="3" fill="#241247" stroke="rgba(240,246,252,0.07)"/>
  <rect x="112" y="262" width="18" height="18" rx="3" fill="#241247" stroke="rgba(240,246,252,0.07)"/>
  <rect x="134" y="262" width="18" height="18" rx="3" fill="#241247" stroke="rgba(240,246,252,0.07)"/>
  <rect x="156" y="262" width="18" height="18" rx="3" fill="#241247" stroke="rgba(240,246,252,0.07)"/>
  <rect x="178" y="262" width="18" height="18" rx="3" fill="#241247" stroke="rgba(240,246,252,0.07)"/>
  <rect x="200" y="262" width="18" height="18" rx="3" fill="#241247" stroke="rgba(240,246,252,0.07)"/>
  <rect x="222" y="262" width="18" height="18" rx="3" fill="#241247" stroke="rgba(240,246,252,0.07)"/>
  <rect x="24" y="284" width="18" height="18" rx="3" fill="#241247" stroke="rgba(240,246,252,0.07)"/>
  <rect x="46" y="284" width="18" height="18" rx="3" fill="#241247" stroke="rgba(240,246,252,0.07)"/>
  <rect x="68" y="284" width="18" height="18" rx="3" fill="#241247" stroke="rgba(240,246,252,0.07)"/>
  <rect x="90" y="284" width="18" height="18" rx="3" fill="#241247" stroke="rgba(240,246,252,0.07)"/>
  <rect x="112" y="284" width="18" height="18" rx="3" fill="#241247" stroke="rgba(240,246,252,0.07)"/>
  <rect x="134" y="284" width="18" height="18" rx="3" fill="#241247" stroke="rgba(240,246,252,0.07)"/>
  <rect x="156" y="284" width="18" height="18" rx="3" fill="#241247" stroke="rgba(240,246,252,0.07)"/>
  <rect x="178" y="284" width="18" height="18" rx="3" fill="#241247" stroke="rgba(240,246,252,0.07)"/>
  <rect x="200" y="284" width="18" height="18" rx="3" fill="#241247" stroke="rgba(240,246,252,0.07)"/>
  <rect x="222" y="284" width="18" height="18" rx="3" fill="#241247" stroke="rgba(240,246,252,0.07)"/>
  <rect x="24" y="306" width="18" height="18" rx="3" fill="#241247" stroke="rgba(240,246,252,0.07)"/>
  <rect x="46" y="306" width="18" height="18" rx="3" fill="#241247" stroke="rgba(240,246,252,0.07)"/>
  <rect x="68" y="306" width="18" height="18" rx="3" fill="#241247" stroke="rgba(240,246,252,0.07)"/>
  <rect x="90" y="306" width="18" height="18" rx="3" fill="#241247" stroke="rgba(240,246,252,0.07)"/>
  <rect x="112" y="306" width="18" height="18" rx="3" fill="#241247" stroke="rgba(240,246,252,0.07)"/>
  <rect x="134" y="306" width="18" height="18" rx="3" fill="#241247" stroke="rgba(240,246,252,0.07)"/>
  <rect x="156" y="306" width="18" height="18" rx="3" fill="#241247" stroke="rgba(240,246,252,0.07)"/>
  <rect x="178" y="306" width="18" height="18" rx="3" fill="#241247" stroke="rgba(240,246,252,0.07)"/>
  <rect x="200" y="306" width="18" height="18" rx="3" fill="#241247" stroke="rgba(240,246,252,0.07)"/>
  <rect x="222" y="306" width="18" height="18" rx="3" fill="#241247" stroke="rgba(240,246,252,0.07)"/>
  <rect x="24" y="328" width="18" height="18" rx="3" fill="#241247" stroke="rgba(240,246,252,0.07)"/>
  <rect x="46" y="328" width="18" height="18" rx="3" fill="#241247" stroke="rgba(240,246,252,0.07)"/>
  <rect x="68" y="328" width="18" height="18" rx="3" fill="#241247" stroke="rgba(240,246,252,0.07)"/>
  <rect x="90" y="328" width="18" height="18" rx="3" fill="#241247" stroke="rgba(240,246,252,0.07)"/>
  <rect x="112" y="328" width="18" height="18" rx="3" fill="#241247" stroke="rgba(240,246,252,0.07)"/>
  <rect x="134" y="328" width="18" height="18" rx="3" fill="#241247" stroke="rgba(240,246,252,0.07)"/>
  <rect x="156" y="328" width="18" height="18" rx="3" fill="#241247" stroke="rgba(240,246,252,0.07)"/>
  <rect x="178" y="328" width="18" height="18" rx="3" fill="#241247" stroke="rgba(240,246,252,0.07)"/>
  <rect x="200" y="328" width="18" height="18" rx="3" fill="#241247" stroke="rgba(240,246,252,0.07)"/>
  <rect x="222" y="328" width="18" height="18" rx="3" fill="#241247" stroke="rgba(240,246,252,0.07)"/>
  <rect x="24" y="350" width="18" height="18" rx="3" fill="#241247" stroke="rgba(240,246,252,0.07)"/>
  <rect x="46" y="350" width="18" height="18" rx="3" fill="#241247" stroke="rgba(240,246,252,0.07)"/>
  <rect x="68" y="350" width="18" height="18" rx="3" fill="#241247" stroke="rgba(240,246,252,0.07)"/>
  <rect x="90" y="350" width="18" height="18" rx="3" fill="#241247" stroke="rgba(240,246,252,0.07)"/>
  <rect x="112" y="350" width="18" height="18" rx="3" fill="#241247" stroke="rgba(240,246,252,0.07)"/>
  <rect x="134" y="350" width="18" height="18" rx="3" fill="#241247" stroke="rgba(240,246,252,0.07)"/>
  <rect x="156" y="350" width="18" height="18" rx="3" fill="#241247" stroke="rgba(240,246,252,0.07)"/>
  <rect x="178" y="350" width="18" height="18" rx="3" fill="#241247" stroke="rgba(240,246,252,0.07)"/>
  <rect x="200" y="350" width="18" height="18" rx="3" fill="#241247" stroke="rgba(240,246,252,0.07)"/>
  <rect x="222" y="350" width="18" height="18" rx="3" fill="#241247" stroke="rgba(240,246,252,0.07)"/>
  <rect x="24" y="372" width="18" height="18" rx="3" fill="#241247" stroke="rgba(240,246,252,0.07)"/>
  <rect x="46" y="372" width="18" height="18" rx="3" fill="#241247" stroke="rgba(240,246,252,0.07)"/>
  <rect x="68" y="372" width="18" height="18" rx="3" fill="#241247" stroke="rgba(240,246,252,0.07)"/>
  <rect x="90" y="372" width="18" height="18" rx="3" fill="#241247" stroke="rgba(240,246,252,0.07)"/>
  <rect x="112" y="372" width="18" height="18" rx="3" fill="#241247" stroke="rgba(240,246,252,0.07)"/>
  <rect x="134" y="372" width="18" height="18" rx="3" fill="#241247" stroke="rgba(240,246,252,0.07)"/>
  <rect x="156" y="372" width="18" height="18" rx="3" fill="#241247" stroke="rgba(240,246,252,0.07)"/>
  <rect x="178" y="372" width="18" height="18" rx="3" fill="#241247" stroke="rgba(240,246,252,0.07)"/>
  <rect x="200" y="372" width="18" height="18" rx="3" fill="#241247" stroke="rgba(240,246,252,0.07)"/>
  <rect x="222" y="372" width="18" height="18" rx="3" fill="#241247" stroke="rgba(240,246,252,0.07)"/>
  <rect x="24" y="394" width="18" height="18" rx="3" fill="#241247" stroke="rgba(240,246,252,0.07)"/>
  <rect x="46" y="394" width="18" height="18" rx="3" fill="#241247" stroke="rgba(240,246,252,0.07)"/>
  <rect x="68" y="394" width="18" height="18" rx="3" fill="#241247" stroke="rgba(240,246,252,0.07)"/>
  <rect x="90" y="394" width="18" height="18" rx="3" fill="#241247" stroke="rgba(240,246,252,0.07)"/>
  <rect x="112" y="394" width="18" height="18" rx="3" fill="#241247" stroke="rgba(240,246,252,0.07)"/>
  <rect x="134" y="394" width="18" height="18" rx="3" fill="#241247" stroke="rgba(240,246,252,0.07)"/>
  <rect x="156" y="394" width="18" height="18" rx="3" fill="#241247" stroke="rgba(240,246,252,0.07)"/>
  <rect x="178" y="394" width="18" height="18" rx="3" fill="#241247" stroke="rgba(240,246,252,0.07)"/>
  <rect x="200" y="394" width="18" height="18" rx="3" fill="#241247" stroke="rgba(240,246,252,0.07)"/>
  <rect x="222" y="394" width="18" height="18" rx="3" fill="#241247" stroke="rgba(240,246,252,0.07)"/>
  <rect x="24" y="416" width="18" height="18" rx="3" fill="#241247" stroke="rgba(240,246,252,0.07)"/>
  <rect x="46" y="416" width="18" height="18" rx="3" fill="#241247" stroke="rgba(240,246,252,0.07)"/>
  <rect x="68" y="416" width="18" height="18" rx="3" fill="#241247" stroke="rgba(240,246,252,0.07)"/>
  <rect x="90" y="416" width="18" height="18" rx="3" fill="#241247" stroke="rgba(240,246,252,0.07)"/>
  <rect x="112" y="416" width="18" height="18" rx="3" fill="#241247" stroke="rgba(240,246,252,0.07)"/>
  <rect x="134" y="416" width="18" height="18" rx="3" fill="#241247" stroke="rgba(240,246,252,0.07)"/>
  <rect x="156" y="416" width="18" height="18" rx="3" fill="#241247" stroke="rgba(240,246,252,0.07)"/>
  <rect x="178" y="416" width="18" height="18" rx="3" fill="#241247" stroke="rgba(240,246,252,0.07)"/>
  <rect x="200" y="416" width="18" height="18" rx="3" fill="#241247" stroke="rgba(240,246,252,0.07)"/>
  <rect x="222" y="416" width="18" height="18" rx="3" fill="#241247" stroke="rgba(240,246,252,0.07)"/>
  <rect x="24" y="438" width="18" height="18" rx="3" fill="#241247" stroke="rgba(240,246,252,0.07)"/>
  <rect x="46" y="438" width="18" height="18" rx="3" fill="#241247" stroke="rgba(240,246,252,0.07)"/>
  <rect x="68" y="438" width="18" height="18" rx="3" fill="#241247" stroke="rgba(240,246,252,0.07)"/>
  <rect x="90" y="438" width="18" height="18" rx="3" fill="#241247" stroke="rgba(240,246,252,0.07)"/>
  <rect x="112" y="438" width="18" height="18" rx="3" fill="#241247" stroke="rgba(240,246,252,0.07)"/>
  <rect x="134" y="438" width="18" height="18" rx="3" fill="#241247" stroke="rgba(240,246,252,0.07)"/>
  <rect x="156" y="438" width="18" height="18" rx="3" fill="#241247" stroke="rgba(240,246,252,0.07)"/>
  <rect x="178" y="438" width="18" height="18" rx="3" fill="#241247" stroke="rgba(240,246,252,0.07)"/>
  <rect x="200" y="438" width="18" height="18" rx="3" fill="#241247" stroke="rgba(240,246,252,0.07)"/>
  <rect x="222" y="438" width="18" height="18" rx="3" fill="#241247" stroke="rgba(240,246,252,0.07)"/>
  <rect x="24" y="460" width="18" height="18" rx="3" fill="#241247" stroke="rgba(240,246,252,0.07)"/>
  <rect x="46" y="460" width="18" height="18" rx="3" fill="#241247" stroke="rgba(240,246,252,0.07)"/>
  <rect x="68" y="460" width="18" height="18" rx="3" fill="#241247" stroke="rgba(240,246,252,0.07)"/>
  <rect x="90" y="460" width="18" height="18" rx="3" fill="#241247" stroke="rgba(240,246,252,0.07)"/>
  <rect x="112" y="460" width="18" height="18" rx="3" fill="#241247" stroke="rgba(240,246,252,0.07)"/>
  <rect x="134" y="460" width="18" height="18" rx="3" fill="#241247" stroke="rgba(240,246,252,0.07)"/>
  <rect x="156" y="460" width="18" height="18" rx="3" fill="#241247" stroke="rgba(240,246,252,0.07)"/>
  <rect x="178" y="460" width="18" height="18" rx="3" fill="#241247" stroke="rgba(240,246,252,0.07)"/>
  <rect x="200" y="460" width="18" height="18" rx="3" fill="#241247" stroke="rgba(240,246,252,0.07)"/>
  <rect x="222" y="460" width="18" height="18" rx="3" fill="#241247" stroke="rgba(240,246,252,0.07)"/>
  <rect x="24" y="482" width="18" height="18" rx="3" fill="#241247" stroke="rgba(240,246,252,0.07)"/>
  <rect x="46" y="482" width="18" height="18" rx="3" fill="#241247" stroke="rgba(240,246,252,0.07)"/>
  <rect x="68" y="482" width="18" height="18" rx="3" fill="#241247" stroke="rgba(240,246,252,0.07)"/>
  <rect x="90" y="482" width="18" height="18" rx="3" fill="#241247" stroke="rgba(240,246,252,0.07)"/>
  <rect x="112" y="482" width="18" height="18" rx="3" fill="#241247" stroke="rgba(240,246,252,0.07)"/>
  <rect x="134" y="482" width="18" height="18" rx="3" fill="#241247" stroke="rgba(240,246,252,0.07)"/>
  <rect x="156" y="482" width="18" height="18" rx="3" fill="#241247" stroke="rgba(240,246,252,0.07)"/>
  <rect x="178" y="482" width="18" height="18" rx="3" fill="#241247" stroke="rgba(240,246,252,0.07)"/>
  <rect x="200" y="482" width="18" height="18" rx="3" fill="#241247" stroke="rgba(240,246,252,0.07)"/>
  <rect x="222" y="482" width="18" height="18" rx="3" fill="#241247" stroke="rgba(240,246,252,0.07)"/>
  <rect x="112" y="460" width="18" height="18" rx="3" fill="none" stroke="#7C3AED" stroke-dasharray="3,3"/>
  <rect x="134" y="460" width="18" height="18" rx="3" fill="none" stroke="#7C3AED" stroke-dasharray="3,3"/>
  <rect x="112" y="482" width="18" height="18" rx="3" fill="none" stroke="#7C3AED" stroke-dasharray="3,3"/>
  <rect x="134" y="482" width="18" height="18" rx="3" fill="none" stroke="#7C3AED" stroke-dasharray="3,3"/>
  <rect x="112" y="64" width="18" height="18" rx="3" fill="#F0A6FF" stroke="rgba(240,246,252,0.25)"/>
  <rect x="134" y="64" width="18" height="18" rx="3" fill="#F0A6FF" stroke="rgba(240,246,252,0.25)"/>
  <rect x="112" y="86" width="18" height="18" rx="3" fill="#F0A6FF" stroke="rgba(240,246,252,0.25)"/>
  <rect x="134" y="86" width="18" height="18" rx="3" fill="#F0A6FF" stroke="rgba(240,246,252,0.25)"/>
  <text x="24" y="536" class="muted">Less</text>
  <rect x="58" y="526" width="11" height="11" rx="2" fill="#241247" stroke="rgba(240,246,252,0.07)"/>
  <rect x="73" y="526" width="11" height="11" rx="2" fill="#4C1D95" stroke="rgba(240,246,252,0.07)"/>
  <rect x="88" y="526" width="11" height="11" rx="2" fill="#7C3AED" stroke="rgba(240,246,252,0.07)"/>
  <rect x="103" y="526" width="11" height="11" rx="2" fill="#C084FC" stroke="rgba(240,246,252,0.07)"/>
  <rect x="118" y="526" width="11" height="11" rx="2" fill="#F0A6FF" stroke="rgba(240,246,252,0.07)"/>
  <text x="139" y="536" class="muted">More</text>
  <text x="268" y="76" class="label">Next</text>
  <rect x="282" y="88" width="11" height="11" rx="2" fill="#F0A6FF"/><rect x="296" y="88" width="11" height="11" rx="2" fill="#F0A6FF"/><rect x="268" y="102" width="11" height="11" rx="2" fill="#F0A6FF"/><rect x="282" y="102" width="11" height="11" rx="2" fill="#F0A6FF"/>
  <text x="268" y="176" class="label">Score</text>
  <text x="268" y="200" class="num">0</text>
  <text x="268" y="232" class="label">Rows cleared</text>
  <text x="268" y="256" class="num">0</text>
  <text x="268" y="284" class="label">Top movers</text>
  
</svg>